<?xml version="1.0" encoding="utf-8"?>
<svg version="1.1" xmlns:xlink="http://www.w3.org/1999/xlink" width="151px" height="166px" xmlns="http://www.w3.org/2000/svg">
  <g transform="matrix(1 0 0 1 -258 -173 )">
    <path d="M 258 173  L 409 173  L 409 339  L 258 339  L 258 173  " fill-rule="nonzero" fill="#cccccc" stroke="none" />
    <path d="M 269 184  L 398 184  L 398 328  L 269 328  L 269 184  " fill-rule="nonzero" fill="#ffffff" stroke="none" />
    <path d="M 347.845 220.55  C 341.503 220.55  336.52 215.567  336.52 209.225  C 336.52 202.883  341.503 197.9  347.845 197.9  C 354.187 197.9  359.17 202.883  359.17 209.225  C 359.17 215.567  354.187 220.55  347.845 220.55  " fill-rule="nonzero" fill="#cccccc" stroke="none" />
    <path d="M 273 324  L 273 249.2  L 303.25 215.2  L 345.6 242.4  L 369.8 235.6  L 394 242.4  L 394 324  L 273 324  " fill-rule="nonzero" fill="#169bd5" stroke="none" />
  </g>
</svg>