<?xml version="1.0" encoding="utf-8"?>
<svg version="1.1" xmlns:xlink="http://www.w3.org/1999/xlink" width="218px" height="55px" xmlns="http://www.w3.org/2000/svg">
  <defs>
    <mask fill="white" id="clip1">
      <path d="M 5 55  C 2.2 55  0 52.8  0 50  L 0 5  C 0 2.19999999999999  2.2 0  5 0  L 213 0  C 215.8 0  218 2.19999999999999  218 5  L 218 50  C 218 52.8  215.8 55  213 55  L 5 55  Z " fill-rule="evenodd" />
    </mask>
  </defs>
  <g transform="matrix(1 0 0 1 -9 -203 )">
    <path d="M 5 55  C 2.2 55  0 52.8  0 50  L 0 5  C 0 2.19999999999999  2.2 0  5 0  L 213 0  C 215.8 0  218 2.19999999999999  218 5  L 218 50  C 218 52.8  215.8 55  213 55  L 5 55  Z " fill-rule="nonzero" fill="#f2f2f2" stroke="none" transform="matrix(1 0 0 1 9 203 )" />
    <path d="M 5 55  C 2.2 55  0 52.8  0 50  L 0 5  C 0 2.19999999999999  2.2 0  5 0  L 213 0  C 215.8 0  218 2.19999999999999  218 5  L 218 50  C 218 52.8  215.8 55  213 55  L 5 55  Z " stroke-width="2" stroke="#000000" fill="none" transform="matrix(1 0 0 1 9 203 )" mask="url(#clip1)" />
  </g>
</svg>